<mxfile host="app.diagrams.net" modified="2020-09-28T18:05:27.845Z" agent="5.0 (Windows NT 10.0; Win64; x64) AppleWebKit/537.36 (KHTML, like Gecko) Chrome/85.0.4183.121 Safari/537.36" etag="yJt9jkpdntxc3ChrRB6g" version="13.7.6" type="github">
  <diagram id="sXs699aBRK_yhBxhbvP2" name="Page-1">
    <mxGraphModel dx="1422" dy="794" grid="1" gridSize="10" guides="1" tooltips="1" connect="1" arrows="1" fold="1" page="1" pageScale="1" pageWidth="850" pageHeight="1100" math="0" shadow="0">
      <root>
        <mxCell id="0" />
        <mxCell id="1" parent="0" />
        <mxCell id="B_7StSU_QWjbHnsfs_5M-1" value="" style="rounded=0;whiteSpace=wrap;html=1;fillColor=#dae8fc;strokeColor=#6c8ebf;" vertex="1" parent="1">
          <mxGeometry y="50" width="850" height="580" as="geometry" />
        </mxCell>
        <mxCell id="B_7StSU_QWjbHnsfs_5M-2" value="ITEM" style="text;html=1;strokeColor=#b85450;fillColor=#f8cecc;align=center;verticalAlign=middle;whiteSpace=wrap;rounded=0;" vertex="1" parent="1">
          <mxGeometry x="115" y="170" width="235" height="20" as="geometry" />
        </mxCell>
        <mxCell id="B_7StSU_QWjbHnsfs_5M-4" value="" style="rounded=0;whiteSpace=wrap;html=1;fillColor=#f8cecc;strokeColor=#b85450;" vertex="1" parent="1">
          <mxGeometry x="115" y="220" width="235" height="230" as="geometry" />
        </mxCell>
        <mxCell id="B_7StSU_QWjbHnsfs_5M-5" value="Large T-shirt" style="text;html=1;strokeColor=none;fillColor=none;align=center;verticalAlign=middle;whiteSpace=wrap;rounded=0;" vertex="1" parent="1">
          <mxGeometry x="155" y="250" width="40" height="20" as="geometry" />
        </mxCell>
        <mxCell id="B_7StSU_QWjbHnsfs_5M-6" value="Medium T-shirt" style="text;html=1;strokeColor=none;fillColor=none;align=center;verticalAlign=middle;whiteSpace=wrap;rounded=0;" vertex="1" parent="1">
          <mxGeometry x="155" y="325" width="40" height="20" as="geometry" />
        </mxCell>
        <mxCell id="B_7StSU_QWjbHnsfs_5M-7" value="Small T-shirt" style="text;html=1;strokeColor=none;fillColor=none;align=center;verticalAlign=middle;whiteSpace=wrap;rounded=0;" vertex="1" parent="1">
          <mxGeometry x="155" y="400" width="40" height="20" as="geometry" />
        </mxCell>
        <mxCell id="B_7StSU_QWjbHnsfs_5M-8" value="Quantity" style="text;html=1;strokeColor=#b85450;fillColor=#f8cecc;align=center;verticalAlign=middle;whiteSpace=wrap;rounded=0;" vertex="1" parent="1">
          <mxGeometry x="345" y="170" width="245" height="20" as="geometry" />
        </mxCell>
        <mxCell id="B_7StSU_QWjbHnsfs_5M-9" value="Price" style="text;html=1;strokeColor=#b85450;fillColor=#f8cecc;align=center;verticalAlign=middle;whiteSpace=wrap;rounded=0;" vertex="1" parent="1">
          <mxGeometry x="590" y="170" width="120" height="20" as="geometry" />
        </mxCell>
        <mxCell id="B_7StSU_QWjbHnsfs_5M-10" value="" style="rounded=0;whiteSpace=wrap;html=1;fillColor=#f8cecc;strokeColor=#b85450;" vertex="1" parent="1">
          <mxGeometry x="345" y="220" width="255" height="230" as="geometry" />
        </mxCell>
        <mxCell id="B_7StSU_QWjbHnsfs_5M-11" value="" style="rounded=0;whiteSpace=wrap;html=1;fillColor=#f8cecc;strokeColor=#b85450;" vertex="1" parent="1">
          <mxGeometry x="590" y="220" width="120" height="230" as="geometry" />
        </mxCell>
        <mxCell id="B_7StSU_QWjbHnsfs_5M-12" value="25" style="text;html=1;strokeColor=none;fillColor=none;align=center;verticalAlign=middle;whiteSpace=wrap;rounded=0;" vertex="1" parent="1">
          <mxGeometry x="385" y="250" width="40" height="20" as="geometry" />
        </mxCell>
        <mxCell id="B_7StSU_QWjbHnsfs_5M-13" value="25" style="text;html=1;strokeColor=none;fillColor=none;align=center;verticalAlign=middle;whiteSpace=wrap;rounded=0;" vertex="1" parent="1">
          <mxGeometry x="385" y="325" width="40" height="20" as="geometry" />
        </mxCell>
        <mxCell id="B_7StSU_QWjbHnsfs_5M-14" value="10" style="text;html=1;strokeColor=none;fillColor=none;align=center;verticalAlign=middle;whiteSpace=wrap;rounded=0;" vertex="1" parent="1">
          <mxGeometry x="385" y="400" width="40" height="20" as="geometry" />
        </mxCell>
        <mxCell id="B_7StSU_QWjbHnsfs_5M-15" value="$4.75 each" style="text;html=1;strokeColor=none;fillColor=none;align=center;verticalAlign=middle;whiteSpace=wrap;rounded=0;" vertex="1" parent="1">
          <mxGeometry x="615" y="250" width="70" height="20" as="geometry" />
        </mxCell>
        <mxCell id="B_7StSU_QWjbHnsfs_5M-16" value="$4.25 each" style="text;html=1;strokeColor=none;fillColor=none;align=center;verticalAlign=middle;whiteSpace=wrap;rounded=0;" vertex="1" parent="1">
          <mxGeometry x="615" y="325" width="70" height="20" as="geometry" />
        </mxCell>
        <mxCell id="B_7StSU_QWjbHnsfs_5M-17" value="$4.00 each" style="text;html=1;strokeColor=none;fillColor=none;align=center;verticalAlign=middle;whiteSpace=wrap;rounded=0;" vertex="1" parent="1">
          <mxGeometry x="615" y="400" width="70" height="20" as="geometry" />
        </mxCell>
        <mxCell id="B_7StSU_QWjbHnsfs_5M-18" value="CART" style="text;html=1;strokeColor=#b85450;fillColor=#f8cecc;align=center;verticalAlign=middle;whiteSpace=wrap;rounded=0;" vertex="1" parent="1">
          <mxGeometry x="287.5" y="80" width="235" height="20" as="geometry" />
        </mxCell>
        <mxCell id="B_7StSU_QWjbHnsfs_5M-21" value="" style="line;strokeWidth=1;rotatable=0;dashed=0;labelPosition=right;align=left;verticalAlign=middle;spacingTop=0;spacingLeft=6;points=[];portConstraint=eastwest;" vertex="1" parent="1">
          <mxGeometry x="115" y="290" width="595" height="10" as="geometry" />
        </mxCell>
        <mxCell id="B_7StSU_QWjbHnsfs_5M-22" value="" style="line;strokeWidth=1;rotatable=0;dashed=0;labelPosition=right;align=left;verticalAlign=middle;spacingTop=0;spacingLeft=6;points=[];portConstraint=eastwest;" vertex="1" parent="1">
          <mxGeometry x="125" y="110" width="595" height="10" as="geometry" />
        </mxCell>
        <mxCell id="B_7StSU_QWjbHnsfs_5M-23" value="" style="line;strokeWidth=1;rotatable=0;dashed=0;labelPosition=right;align=left;verticalAlign=middle;spacingTop=0;spacingLeft=6;points=[];portConstraint=eastwest;" vertex="1" parent="1">
          <mxGeometry x="115" y="370" width="595" height="10" as="geometry" />
        </mxCell>
        <mxCell id="B_7StSU_QWjbHnsfs_5M-26" value="ENTER PAYMENT INFO" style="labelPosition=center;verticalLabelPosition=middle;align=center;html=1;shape=mxgraph.basic.button;dx=10;fillColor=#f8cecc;strokeColor=#b85450;" vertex="1" parent="1">
          <mxGeometry x="690" y="540" width="150" height="70" as="geometry" />
        </mxCell>
        <mxCell id="B_7StSU_QWjbHnsfs_5M-28" value="ADD/REMOVE ITEMS FROM CART" style="rounded=1;html=1;shadow=0;dashed=0;whiteSpace=wrap;fontSize=10;fillColor=#666666;align=center;strokeColor=#4D4D4D;fontColor=#ffffff;" vertex="1" parent="1">
          <mxGeometry x="140" y="460" width="185" height="16.88" as="geometry" />
        </mxCell>
        <mxCell id="B_7StSU_QWjbHnsfs_5M-29" value="INCREASE/DECREASE QUANTITY" style="rounded=1;html=1;shadow=0;dashed=0;whiteSpace=wrap;fontSize=10;fillColor=#666666;align=center;strokeColor=#4D4D4D;fontColor=#ffffff;" vertex="1" parent="1">
          <mxGeometry x="375" y="460" width="185" height="16.88" as="geometry" />
        </mxCell>
        <mxCell id="B_7StSU_QWjbHnsfs_5M-30" value="TOTAL: $13.00" style="text;html=1;strokeColor=#b85450;fillColor=#f8cecc;align=center;verticalAlign=middle;whiteSpace=wrap;rounded=0;" vertex="1" parent="1">
          <mxGeometry x="590" y="456.88" width="120" height="20" as="geometry" />
        </mxCell>
        <mxCell id="B_7StSU_QWjbHnsfs_5M-31" value="Return to shopping" style="labelPosition=center;verticalLabelPosition=middle;align=center;html=1;shape=mxgraph.basic.button;dx=10;fillColor=#d5e8d4;strokeColor=#82b366;" vertex="1" parent="1">
          <mxGeometry x="15" y="540" width="125" height="60" as="geometry" />
        </mxCell>
      </root>
    </mxGraphModel>
  </diagram>
</mxfile>
